<?xml version="1.0" standalone="no"?>
<!DOCTYPE svg PUBLIC "-//W3C//DTD SVG 20010904//EN"
 "http://www.w3.org/TR/2001/REC-SVG-20010904/DTD/svg10.dtd">
<svg version="1.0" xmlns="http://www.w3.org/2000/svg"
 width="400.000000pt" height="400.000000pt" viewBox="0 0 400.000000 400.000000"
 preserveAspectRatio="xMidYMid meet">
<metadata>
Created by potrace 1.14, written by Peter Selinger 2001-2017
</metadata>
<g transform="translate(0.000000,400.000000) scale(0.100000,-0.100000)"
fill="#000000" stroke="none">
<path d="M1900 3949 c7 -11 43 -70 81 -130 38 -61 69 -112 69 -114 0 -2 -33
10 -72 27 -213 90 -451 112 -697 63 -68 -13 -126 -27 -129 -30 -3 -2 57 -34
134 -70 150 -71 346 -176 341 -182 -2 -2 -53 4 -113 13 -80 12 -149 15 -259
11 -154 -5 -233 -20 -357 -67 -51 -19 -58 -25 -58 -48 0 -32 22 -67 53 -84 12
-7 83 -29 157 -49 114 -31 130 -38 105 -44 -107 -24 -151 -45 -223 -107 -33
-28 -33 -28 -10 -37 13 -4 87 -30 165 -57 79 -27 143 -51 143 -55 0 -3 -26
-23 -57 -46 -90 -63 -173 -143 -263 -252 -46 -56 -88 -101 -94 -101 -24 0
-164 -91 -224 -146 -111 -101 -146 -181 -140 -323 l3 -87 -45 -55 c-24 -30
-103 -115 -175 -189 -72 -74 -154 -171 -183 -215 l-52 -79 0 -91 1 -90 23 61
c57 146 104 216 276 404 73 79 139 155 147 167 19 28 33 30 33 3 0 -11 4 -20
9 -20 5 0 16 -24 26 -52 58 -180 224 -318 411 -343 l51 -6 -1 -52 c-1 -103 81
-213 202 -270 63 -30 74 -32 182 -32 109 0 119 2 183 32 71 34 91 59 35 42
-18 -5 -71 -9 -118 -9 -138 0 -250 37 -335 112 -58 51 -75 84 -75 147 0 65 39
113 104 130 64 16 178 14 249 -5 70 -18 181 -66 191 -83 4 -6 12 -11 18 -11
21 0 -27 42 -92 80 -36 21 -95 47 -131 56 l-66 17 31 41 c17 23 42 66 56 96
13 30 25 57 27 59 1 2 9 -2 18 -9 11 -9 15 -9 15 -1 0 40 -176 225 -270 284
-123 76 -301 124 -424 114 -105 -9 -163 -33 -218 -88 l-48 -48 0 38 c0 133
102 261 292 366 155 85 343 83 506 -5 30 -16 57 -28 60 -26 8 9 -82 66 -137
86 -80 31 -155 42 -237 38 l-72 -3 18 25 c44 61 115 118 162 129 79 19 189 14
271 -12 79 -25 174 -83 207 -125 11 -14 21 -23 23 -21 1 2 8 13 14 24 47 75
46 74 21 123 -64 124 -243 172 -418 112 -30 -10 -56 -17 -58 -15 -4 4 139 95
150 95 5 0 69 -21 141 -46 481 -168 803 -333 997 -513 l55 -51 -45 25 c-83 46
-230 82 -230 56 0 -5 12 -12 28 -16 43 -11 126 -78 272 -221 74 -73 136 -131
138 -129 2 2 -1 20 -7 41 -6 21 -9 39 -7 41 8 8 77 -110 104 -178 46 -115 46
-126 15 -210 l-28 -74 -7 55 c-7 61 -43 166 -60 176 -7 5 -8 -10 -2 -47 10
-71 9 -86 -10 -138 -17 -43 -14 -69 5 -41 7 11 8 6 3 -15 -11 -48 -42 -115
-54 -115 -5 0 -22 19 -36 43 -15 23 -75 90 -134 148 -206 203 -424 317 -610
319 l-55 1 50 45 c64 58 210 130 300 149 39 8 105 15 148 15 50 0 76 4 72 10
-11 18 -196 12 -281 -10 -145 -36 -291 -126 -389 -239 l-30 -34 48 7 c26 4 47
5 47 3 0 -3 -17 -31 -39 -63 -50 -76 -61 -112 -61 -194 0 -128 61 -265 169
-382 145 -157 284 -200 442 -138 63 25 200 115 267 175 29 26 56 44 62 40 13
-8 -11 -40 -91 -122 -53 -53 -59 -64 -50 -81 16 -30 13 -69 -5 -84 -9 -7 -36
-31 -60 -54 -24 -23 -73 -55 -109 -73 -96 -47 -131 -110 -99 -176 26 -56 53
-55 131 3 132 97 266 182 322 203 79 30 190 36 271 15 76 -20 157 -63 183 -98
89 -119 -75 -393 -298 -499 -192 -92 -398 -65 -531 71 -51 52 -72 64 -55 31 9
-17 -6 -31 -129 -122 -230 -171 -430 -281 -640 -352 -178 -61 -252 -72 -460
-72 -161 1 -196 4 -270 24 -308 83 -556 303 -672 596 l-27 70 -1 -110 0 -110
57 -85 c32 -47 93 -120 136 -162 75 -75 246 -198 274 -198 7 0 13 -4 13 -8 0
-11 -299 6 -437 25 -41 5 -43 4 -43 -20 0 -16 7 -28 18 -31 30 -9 459 -29 511
-24 28 3 51 1 51 -3 0 -5 178 -9 395 -9 217 0 395 4 395 8 0 5 44 25 98 46
l98 37 69 -22 c39 -12 91 -32 117 -45 32 -16 64 -24 100 -24 l53 0 -30 21
c-47 32 -136 76 -182 89 -24 7 -43 16 -43 19 0 3 13 12 30 19 95 42 312 190
477 324 l72 58 50 -50 c135 -135 349 -165 538 -76 141 67 285 238 334 398 29
92 21 161 -26 216 l-25 29 59 37 c79 49 133 102 221 221 41 55 98 128 127 162
29 33 53 65 53 70 0 5 -43 115 -95 246 -52 130 -95 239 -95 242 0 3 36 5 79 5
101 0 210 21 286 54 61 27 260 155 252 162 -2 2 -64 -3 -138 -12 -129 -15
-251 -14 -354 4 l-40 7 60 34 c75 42 162 132 202 208 27 51 93 240 93 267 0 5
-17 -10 -37 -35 -44 -53 -235 -250 -239 -246 -1 1 7 34 19 72 18 60 21 94 20
240 0 94 -4 187 -9 208 l-9 38 -48 -128 c-46 -124 -126 -281 -168 -333 l-21
-25 7 25 c8 28 17 491 10 475 -3 -5 -25 -89 -50 -185 -25 -96 -48 -182 -52
-190 -5 -14 -49 218 -88 470 -20 126 -64 268 -115 371 -37 72 -152 253 -169
263 -4 3 1 -45 11 -107 10 -62 17 -136 16 -165 l-3 -53 -33 43 c-61 80 -187
200 -304 288 -117 89 -164 119 -157 103 3 -4 29 -55 59 -113 29 -58 64 -127
77 -154 l23 -49 -72 65 c-108 95 -154 130 -248 187 -73 44 -309 151 -333 151
-4 0 -3 -9 3 -21z m-1080 -1811 c0 -64 17 -114 53 -155 44 -50 98 -73 175 -73
79 0 131 25 173 83 17 23 36 41 41 39 14 -4 125 -90 133 -102 9 -15 -58 -149
-99 -196 -33 -39 -38 -41 -105 -47 -80 -7 -141 -34 -173 -77 -19 -27 -28 -30
-74 -30 -110 0 -241 61 -309 144 -59 72 -118 226 -86 226 7 0 11 19 11 49 0
53 25 99 72 134 30 22 107 45 156 46 31 1 32 0 32 -41z m104 32 c24 0 27 -2
16 -15 -10 -12 -10 -15 0 -15 20 0 50 -31 50 -51 0 -10 -9 -24 -20 -32 -19
-14 -20 -14 -1 -31 21 -19 79 -24 107 -8 10 6 13 12 7 12 -7 0 -20 11 -29 25
-15 23 -15 27 0 50 9 14 25 25 35 25 19 0 107 -45 116 -59 9 -16 -66 -90 -110
-106 -110 -43 -232 30 -249 150 -8 53 -1 69 28 61 11 -3 34 -6 50 -6z m1021
-177 c32 -8 71 -21 86 -29 26 -13 26 -14 13 -51 -34 -96 2 -211 84 -268 40
-27 51 -30 121 -30 67 0 83 4 118 27 l41 27 39 -42 c21 -23 56 -64 78 -91 l40
-49 -44 -39 c-59 -52 -199 -135 -268 -160 -31 -11 -85 -20 -118 -20 -119 -2
-254 88 -354 237 -124 185 -132 341 -24 464 51 59 51 59 188 24z m190 -84 c30
-17 57 -38 60 -48 8 -27 -4 -50 -31 -57 -30 -8 -31 -25 -1 -51 38 -34 54 -35
61 -3 4 21 13 31 32 36 22 6 33 -1 71 -38 l45 -45 -34 -24 c-27 -20 -45 -24
-100 -24 -59 0 -70 3 -105 31 -46 37 -75 91 -81 153 -3 42 10 101 23 101 3 0
30 -14 60 -31z"/>
<path d="M1300 2706 c14 -9 32 -15 40 -15 13 0 13 1 0 8 -8 5 -26 12 -40 15
l-25 7 25 -15z"/>
<path d="M1365 2680 c3 -5 14 -10 23 -10 15 0 15 2 2 10 -20 13 -33 13 -25 0z"/>
<path d="M1401 2278 c6 -23 12 -45 16 -50 3 -5 9 -55 13 -112 5 -56 12 -115
16 -131 l8 -30 7 30 c13 56 9 171 -7 226 -28 94 -71 150 -53 67z"/>
<path d="M3915 1706 c-169 -65 -247 -123 -295 -218 -32 -64 -38 -112 -17 -139
26 -35 81 -59 134 -59 45 0 55 -4 69 -25 16 -25 16 -27 -13 -68 -70 -98 -103
-200 -103 -321 0 -107 28 -174 162 -384 l112 -175 -104 -100 c-58 -55 -138
-125 -179 -156 l-75 -56 49 -3 c27 -2 59 -1 71 2 12 3 78 63 148 132 125 126
126 126 126 173 0 43 -8 58 -89 175 -152 216 -189 349 -143 503 21 68 85 183
103 183 4 0 16 -11 24 -24 18 -26 59 -45 88 -38 16 3 17 23 17 245 0 234 -5
277 -29 263 -6 -4 -11 -1 -11 8 0 9 -12 16 -32 18 -32 3 -32 4 20 23 42 16 52
24 52 42 0 28 -9 28 -85 -1z"/>
<path d="M3980 1640 c-9 -6 -10 -10 -3 -10 6 0 15 5 18 10 8 12 4 12 -15 0z"/>
<path d="M334 1428 c-83 -113 -135 -204 -186 -323 -53 -127 -56 -185 -13 -264
35 -63 231 -271 317 -336 86 -64 226 -131 343 -162 97 -26 108 -27 380 -28
154 0 292 3 307 7 48 14 87 58 127 142 45 97 99 179 168 255 l48 53 -3 -48
c-3 -51 22 -114 48 -122 11 -4 12 14 7 88 -4 51 -7 117 -7 147 0 58 -14 64
-25 11 l-7 -31 -117 6 c-468 26 -915 239 -1230 589 -46 51 -87 94 -90 96 -4 1
-34 -35 -67 -80z m146 -74 c147 -149 330 -276 542 -379 215 -103 470 -178 656
-192 39 -3 72 -9 72 -13 0 -3 -12 -17 -26 -31 -48 -44 -99 -122 -154 -233 -39
-78 -63 -114 -80 -123 -39 -18 -329 -36 -475 -29 -339 16 -496 95 -742 376
-85 96 -123 163 -123 215 0 31 46 168 68 202 5 9 22 -8 50 -51 56 -85 180
-199 283 -261 178 -105 471 -222 644 -256 97 -19 369 -19 387 0 11 12 10 13
-7 7 -37 -13 -239 -7 -320 9 -247 50 -569 199 -800 370 -73 54 -215 198 -215
219 0 22 145 244 160 246 3 0 39 -34 80 -76z"/>
<path d="M3885 1070 c-10 -16 3 -29 43 -40 61 -17 72 -14 72 20 0 30 -1 30
-54 30 -30 0 -58 -4 -61 -10z"/>
<path d="M2848 970 c-98 -17 -198 -57 -275 -112 -34 -25 -129 -129 -193 -212
-19 -25 -15 -23 105 57 50 34 113 69 140 80 57 22 207 34 244 20 23 -9 18 -12
-50 -38 -112 -42 -229 -97 -229 -107 0 -17 277 30 328 56 67 35 94 114 53 155
-22 22 -126 37 -194 28 -39 -5 -40 -5 -17 8 30 15 111 40 195 59 l60 14 -60 0
c-33 0 -81 -4 -107 -8z"/>
<path d="M295 567 c-19 -45 24 -131 88 -176 49 -33 215 -97 289 -111 57 -11
148 -11 193 0 40 9 30 13 -155 50 -184 36 -264 61 -320 99 -51 34 -69 60 -79
113 -6 33 -10 39 -16 25z"/>
</g>
</svg>
